<?xml version="1.0" standalone="no"?>
<!DOCTYPE svg PUBLIC "-//W3C//DTD SVG 20010904//EN"
 "http://www.w3.org/TR/2001/REC-SVG-20010904/DTD/svg10.dtd">
<svg version="1.0" xmlns="http://www.w3.org/2000/svg"
 width="346.000000pt" height="150.000000pt" viewBox="0 0 346.000000 150.000000"
 preserveAspectRatio="xMidYMid meet">

<g transform="translate(0.000000,150.000000) scale(0.100000,-0.100000)"
fill="#000000" stroke="none">
<path d="M870 1443 l0 -48 18 26 c9 15 28 36 42 48 l25 20 -42 1 -43 0 0 -47z"/>
<path d="M979 1465 c-34 -23 -49 -43 -49 -67 0 -6 7 -8 15 -4 12 4 14 0 9 -22
-4 -15 -11 -30 -16 -33 -4 -3 -19 -20 -33 -39 -18 -25 -24 -43 -20 -65 2 -16
10 -112 16 -213 l13 -184 60 7 c34 4 62 9 64 10 2 2 4 35 5 74 2 79 6 82 66
51 52 -26 88 -71 96 -120 4 -22 11 -40 16 -40 13 0 -1 60 -25 105 -25 47 -71
80 -123 89 -48 9 -120 43 -126 60 -4 9 5 8 30 -5 19 -10 60 -21 91 -24 95 -10
112 -16 147 -46 36 -32 54 -26 29 9 -24 34 -73 55 -150 62 -39 4 -89 16 -110
26 -46 23 -79 81 -70 120 10 38 59 84 91 84 16 0 24 4 19 11 -3 6 -19 9 -35 5
-27 -5 -29 -3 -29 25 0 39 22 80 60 112 16 14 30 28 30 31 0 14 -38 4 -71 -19z"/>
<path d="M310 1400 l0 -79 28 4 c15 3 56 9 91 15 35 5 66 11 68 14 2 2 1 31
-3 65 l-7 61 -88 0 -89 0 0 -80z"/>
<path d="M1031 1445 c-17 -20 -30 -43 -30 -53 1 -15 2 -15 6 1 4 16 11 18 41
12 47 -8 82 -33 101 -73 16 -31 31 -42 31 -22 0 39 -66 110 -101 110 -11 0
-19 5 -19 10 0 26 85 -6 114 -43 l26 -32 0 35 c0 33 -4 38 -55 63 -31 15 -62
27 -69 27 -8 0 -28 -16 -45 -35z"/>
<path d="M1345 1459 c-11 -17 1 -21 15 -4 8 9 8 15 2 15 -6 0 -14 -5 -17 -11z"/>
<path d="M1404 1455 c-14 -35 24 -68 51 -45 22 18 18 47 -7 54 -33 9 -38 8
-44 -9z"/>
<path d="M1870 1448 c-26 -14 -53 -37 -64 -57 -24 -42 -35 -173 -16 -196 9
-10 9 -15 1 -15 -6 0 -11 -4 -11 -9 0 -15 42 -21 64 -9 20 11 20 11 -3 29
l-23 19 24 0 c13 0 33 -7 45 -15 20 -14 22 -13 28 14 12 57 88 111 125 91 32
-17 40 -44 40 -128 l0 -79 45 -13 c46 -13 74 -35 38 -28 -36 6 -25 -17 12 -26
20 -4 37 -7 39 -5 5 7 -14 245 -25 295 -13 65 -65 129 -117 144 -65 18 -153
12 -202 -12z"/>
<path d="M1520 1433 c0 -10 -7 -29 -16 -41 -15 -22 -15 -24 2 -38 18 -14 18
-15 -5 -9 l-23 7 23 -32 24 -31 8 32 c5 18 6 41 4 51 -3 10 -1 16 4 12 5 -3 9
-11 9 -19 0 -7 16 -30 35 -51 19 -20 35 -47 35 -59 0 -24 -28 -55 -51 -55 -8
0 -29 -17 -47 -37 -18 -21 -28 -28 -23 -16 28 57 -4 143 -54 143 -39 0 -95
-29 -95 -49 0 -20 52 -47 69 -36 16 9 13 35 -4 35 -23 0 -18 17 7 23 34 9 68
-18 68 -53 0 -35 -34 -70 -67 -70 -30 0 -29 -11 2 -40 25 -23 25 -23 25 -2 0
11 5 24 10 27 6 3 10 -3 10 -14 0 -40 65 -39 125 2 l30 21 -19 -22 c-27 -31
-3 -29 59 4 63 33 74 49 75 106 0 106 -77 199 -187 223 -28 6 -33 4 -33 -12z"/>
<path d="M795 1405 c-5 -2 -50 -9 -100 -16 l-90 -12 45 -12 c49 -13 100 -41
100 -56 0 -5 18 -9 40 -9 l40 0 0 55 c0 53 -5 60 -35 50z"/>
<path d="M1363 1364 l-11 -45 29 27 c27 26 28 29 12 46 -9 10 -17 18 -18 18
-1 0 -6 -21 -12 -46z"/>
<path d="M1227 1380 c9 -35 -7 -87 -42 -140 -18 -27 -28 -50 -22 -50 19 0 32
12 64 57 17 23 32 41 34 39 12 -13 7 71 -6 91 -19 28 -35 30 -28 3z"/>
<path d="M1008 1353 c6 -2 18 -2 25 0 6 3 1 5 -13 5 -14 0 -19 -2 -12 -5z"/>
<path d="M540 1341 c0 -13 26 -21 70 -21 20 0 57 -7 80 -15 44 -16 57 -14 46
4 -13 21 -196 51 -196 32z"/>
<path d="M1421 1336 c2 -2 15 -9 29 -16 23 -12 24 -12 11 3 -7 10 -20 17 -29
17 -8 0 -13 -2 -11 -4z"/>
<path d="M1111 1257 c-2 -26 -47 -67 -73 -66 -13 0 -18 3 -12 5 17 7 4 54 -15
54 -42 0 -55 -56 -21 -90 18 -18 31 -20 99 -18 77 3 108 -5 83 -21 -9 -5 -5
-11 14 -20 23 -10 26 -10 20 4 -3 9 -6 20 -6 25 0 13 -60 30 -106 30 -46 0
-59 14 -24 25 27 8 53 49 47 72 -4 17 -5 17 -6 0z"/>
<path d="M590 1250 l-35 -7 32 -2 c59 -2 63 -9 25 -47 -28 -28 -33 -39 -27
-62 10 -39 44 -72 76 -72 18 0 29 -6 32 -17 4 -14 5 -12 6 5 1 17 -4 22 -23
22 -35 0 -76 37 -76 69 0 38 26 71 57 71 25 0 26 -1 8 -13 -23 -17 -12 -37 21
-37 21 0 24 4 24 40 0 34 -4 42 -26 50 -28 11 -42 11 -94 0z"/>
<path d="M1442 1199 c-13 -21 -28 -22 -77 -5 -13 5 -12 2 5 -8 14 -8 32 -15
41 -16 21 0 53 24 48 38 -2 7 -9 4 -17 -9z"/>
<path d="M540 1199 c0 -5 5 -7 10 -4 6 3 10 8 10 11 0 2 -4 4 -10 4 -5 0 -10
-5 -10 -11z"/>
<path d="M737 1135 c-31 -28 -48 -31 -80 -13 -20 10 -21 10 -8 -5 8 -10 28
-17 47 -17 30 0 34 -3 35 -27 0 -16 3 -22 6 -15 3 7 16 24 29 37 25 26 32 65
12 65 -7 0 -26 -12 -41 -25z"/>
<path d="M1350 1128 c0 -46 109 -112 155 -94 10 4 14 2 9 -5 -4 -7 -29 -10
-65 -7 l-58 4 -15 -47 c-9 -26 -16 -80 -16 -118 0 -61 3 -71 18 -71 9 0 51 -5
92 -10 43 -6 78 -6 83 -1 5 5 6 66 2 141 l-8 131 -37 -6 c-48 -8 -87 11 -129
62 -21 25 -31 32 -31 21z"/>
<path d="M1793 1132 c-7 -4 14 -8 46 -7 33 0 54 3 48 7 -16 10 -79 10 -94 0z"/>
<path d="M540 1102 c0 -33 28 -70 69 -92 34 -18 34 -19 10 -20 -14 0 -34 7
-45 15 -10 8 -23 15 -27 15 -4 0 -6 -42 -5 -92 l3 -93 114 -3 c63 -1 118 1
122 5 4 4 10 23 14 41 7 32 7 32 -34 32 -29 0 -41 4 -41 15 0 11 -5 12 -26 5
-14 -6 -35 -10 -47 -10 -15 0 -8 7 23 21 54 25 54 24 43 43 -8 14 -12 13 -33
-9 -29 -31 -51 -34 -23 -2 33 36 33 42 0 44 -41 3 -77 30 -99 74 -15 29 -18
31 -18 11z"/>
<path d="M1783 1093 c-7 -2 -13 -11 -13 -19 0 -13 3 -13 22 0 12 9 32 16 45
16 22 0 22 -1 5 -29 -16 -28 -15 -31 2 -50 13 -15 30 -21 55 -19 36 1 36 1 4
5 -17 2 -37 11 -43 19 -11 12 -8 13 19 8 20 -4 31 -3 31 5 0 6 -9 11 -21 11
-12 0 -19 5 -16 13 2 6 10 11 16 10 17 -4 13 24 -5 31 -18 7 -83 7 -101 -1z"/>
<path d="M2094 1028 c20 -28 23 -38 12 -38 -8 0 -20 8 -25 18 -6 9 -11 12 -11
5 0 -6 6 -15 12 -19 9 -6 5 -11 -12 -16 -25 -8 6 -4 100 12 l45 7 -40 2 c-29
1 -48 9 -74 34 l-35 32 28 -37z"/>
<path d="M735 1030 c-19 -8 -19 -9 3 -9 12 -1 22 4 22 9 0 6 -1 10 -2 9 -2 0
-12 -4 -23 -9z"/>
<path d="M1777 1016 c-4 -9 -2 -18 4 -21 5 -4 6 -11 3 -17 -4 -6 1 -8 12 -6
13 2 19 12 19 28 0 28 -29 40 -38 16z"/>
<path d="M1951 974 c8 -9 27 -23 44 -31 l30 -14 -37 4 c-43 3 -47 -2 -18 -28
36 -33 12 -28 -32 6 -40 32 -44 26 -10 -13 27 -31 -5 -19 -42 15 -23 22 -40
31 -48 25 -7 -4 -23 -8 -35 -8 -29 0 -29 -14 0 -65 31 -55 74 -75 165 -75 57
0 83 5 120 24 62 31 100 72 84 88 -9 9 -20 9 -45 0 -18 -7 -49 -12 -68 -11
l-34 1 31 7 c39 10 51 18 63 40 9 16 4 17 -49 13 -48 -4 -66 0 -97 18 -28 17
-33 18 -22 4z"/>
<path d="M1070 970 c0 -5 5 -10 11 -10 5 0 7 5 4 10 -3 6 -8 10 -11 10 -2 0
-4 -4 -4 -10z"/>
<path d="M2145 960 c-7 -12 12 -40 27 -40 5 0 2 7 -6 16 -21 20 -20 24 4 24
11 0 19 -4 18 -9 -2 -5 2 -10 7 -11 6 0 11 6 13 14 3 12 -5 16 -27 16 -16 0
-33 -5 -36 -10z"/>
<path d="M1112 887 l3 -62 33 -3 c27 -3 32 0 32 18 0 29 -36 96 -55 104 -13 5
-15 -4 -13 -57z"/>
<path d="M1270 883 c0 -56 2 -63 20 -63 25 0 25 12 0 75 l-19 50 -1 -62z"/>
<path d="M1096 877 c3 -10 9 -15 12 -12 3 3 0 11 -7 18 -10 9 -11 8 -5 -6z"/>
</g>
</svg>
