<?xml version="1.0" encoding="UTF-8"?>
<!DOCTYPE svg PUBLIC "-//W3C//DTD SVG 1.1//EN" "http://www.w3.org/Graphics/SVG/1.1/DTD/svg11.dtd">
<svg xmlns="http://www.w3.org/2000/svg" version="1.1" width="346px" height="150px" style="shape-rendering:geometricPrecision; text-rendering:geometricPrecision; image-rendering:optimizeQuality; fill-rule:evenodd; clip-rule:evenodd" xmlns:xlink="http://www.w3.org/1999/xlink">
<g><path style="opacity:0.705" fill="#a95411" d="M 85.5,-0.5 C 86.8333,-0.5 88.1667,-0.5 89.5,-0.5C 89.5,1.83333 89.5,4.16667 89.5,6.5C 88.5088,8.48233 87.5088,10.4823 86.5,12.5C 85.5078,8.2172 85.1744,3.88387 85.5,-0.5 Z"/></g>
<g><path style="opacity:0.833" fill="#a75211" d="M 89.5,-0.5 C 90.5,-0.5 91.5,-0.5 92.5,-0.5C 92.5,0.833333 92.5,2.16667 92.5,3.5C 91.2719,4.30646 90.2719,5.30646 89.5,6.5C 89.5,4.16667 89.5,1.83333 89.5,-0.5 Z"/></g>
<g><path style="opacity:0.633" fill="#a65011" d="M 92.5,-0.5 C 94.1667,-0.5 95.8333,-0.5 97.5,-0.5C 96.0552,1.06269 94.3885,2.39602 92.5,3.5C 92.5,2.16667 92.5,0.833333 92.5,-0.5 Z"/></g>
<g><path style="opacity:0.761" fill="#a44e11" d="M 100.5,-0.5 C 101.167,-0.5 101.833,-0.5 102.5,-0.5C 102.5,-0.166667 102.5,0.166667 102.5,0.5C 102.5,3.5 102.5,6.5 102.5,9.5C 100.015,10.7399 100.015,11.7399 102.5,12.5C 102.5,13.5 102.5,14.5 102.5,15.5C 101.167,15.5 99.8333,15.5 98.5,15.5C 98.7384,7.76251 97.7384,7.59584 95.5,15C 97.6525,17.1651 100.319,17.9984 103.5,17.5C 103.5,18.5 103.5,19.5 103.5,20.5C 98.6229,19.7753 94.9563,21.4419 92.5,25.5C 92.5,22.1667 92.5,18.8333 92.5,15.5C 93.2485,14.469 93.9152,13.3024 94.5,12C 93.5509,11.3828 92.7175,11.5494 92,12.5C 91.3333,10.8333 91.3333,9.16667 92,7.5C 94.1565,4.02414 96.9898,1.35748 100.5,-0.5 Z"/></g>
<g><path style="opacity:0.913" fill="#cd851d" d="M 7.5,0.5 C 7.5,5.16667 7.5,9.83333 7.5,14.5C 6.03035,17.6164 4.03035,20.2831 1.5,22.5C 0.502739,15.1968 0.169406,7.86348 0.5,0.5C 2.83333,0.5 5.16667,0.5 7.5,0.5 Z"/></g>
<g><path style="opacity:0.947" fill="#ca8119" d="M 7.5,0.5 C 10.5331,0.131516 13.1998,0.798183 15.5,2.5C 16.5385,9.19182 13.8718,13.1918 7.5,14.5C 7.5,9.83333 7.5,5.16667 7.5,0.5 Z"/></g>
<g><path style="opacity:0.785" fill="#c87d16" d="M 20.5,0.5 C 20.5,5.16667 20.5,9.83333 20.5,14.5C 20.5654,14.9382 20.3988,15.2716 20,15.5C 17.004,14.0283 16.1706,11.8616 17.5,9C 16.8828,6.72301 16.2161,4.55634 15.5,2.5C 16.5521,0.743953 18.2188,0.0772868 20.5,0.5 Z"/></g>
<g><path style="opacity:0.873" fill="#c57914" d="M 20.5,0.5 C 23.8333,0.5 27.1667,0.5 30.5,0.5C 30.5,6.5 30.5,12.5 30.5,18.5C 28.6785,34.1353 27.8452,50.1353 28,66.5C 25.6178,67.5541 23.1178,68.2208 20.5,68.5C 20.5,61.5 20.5,54.5 20.5,47.5C 21.2899,46.2058 22.2899,45.0391 23.5,44C 22.4232,43.5304 21.4232,43.6971 20.5,44.5C 20.5,42.8333 20.5,41.1667 20.5,39.5C 21.635,38.5255 22.635,37.3588 23.5,36C 22.4232,35.5304 21.4232,35.6971 20.5,36.5C 20.5,35.1667 20.5,33.8333 20.5,32.5C 22.9799,28.2591 25.3132,23.9257 27.5,19.5C 26.2438,20.0302 24.7438,20.0302 23,19.5C 22.3399,16.4665 22.8399,13.6331 24.5,11C 24.1667,10.8333 23.8333,10.6667 23.5,10.5C 22.4793,11.9014 21.4793,13.2347 20.5,14.5C 20.5,9.83333 20.5,5.16667 20.5,0.5 Z"/></g>
<g><path style="opacity:0.94" fill="#c27511" d="M 30.5,0.5 C 32.1667,0.5 33.8333,0.5 35.5,0.5C 35.5,6.16667 35.5,11.8333 35.5,17.5C 33.7085,17.366 32.0418,17.6993 30.5,18.5C 30.5,12.5 30.5,6.5 30.5,0.5 Z"/></g>
<g><path style="opacity:0.928" fill="#c07211" d="M 35.5,0.5 C 37.1667,0.5 38.8333,0.5 40.5,0.5C 40.5,5.83333 40.5,11.1667 40.5,16.5C 38.8828,17.038 37.2161,17.3713 35.5,17.5C 35.5,11.8333 35.5,6.16667 35.5,0.5 Z"/></g>
<g><path style="opacity:0.93" fill="#bd6e11" d="M 40.5,0.5 C 43.4552,1.15872 46.4552,1.49205 49.5,1.5C 49.4666,5.92044 49.6333,10.2538 50,14.5C 47.0027,15.8664 43.836,16.533 40.5,16.5C 40.5,11.1667 40.5,5.83333 40.5,0.5 Z"/></g>
<g><path style="opacity:0.852" fill="#a14b10" d="M 102.5,0.5 C 103.167,0.5 103.833,0.5 104.5,0.5C 104.5,3.5 104.5,6.5 104.5,9.5C 103.833,9.5 103.167,9.5 102.5,9.5C 102.5,6.5 102.5,3.5 102.5,0.5 Z"/></g>
<g><path style="opacity:0.809" fill="#9e4711" d="M 104.5,0.5 C 108.092,0.698018 111.426,1.69802 114.5,3.5C 114.5,5.16667 114.5,6.83333 114.5,8.5C 113.761,8.36899 113.094,8.53566 112.5,9C 113.381,9.7083 114.047,10.5416 114.5,11.5C 114.5,13.1667 114.5,14.8333 114.5,16.5C 112.259,12.7044 108.926,10.371 104.5,9.5C 104.5,6.5 104.5,3.5 104.5,0.5 Z"/></g>
<g><path style="opacity:0.6" fill="#923911" d="M 139.5,2.5 C 136.888,3.27748 135.055,4.94415 134,7.5C 133.505,5.5273 133.338,3.5273 133.5,1.5C 135.735,1.20528 137.735,1.53862 139.5,2.5 Z"/></g>
<g><path style="opacity:0.915" fill="#791b11" d="M 209.5,4.5 C 209.5,16.8333 209.5,29.1667 209.5,41.5C 208.5,41.5 207.5,41.5 206.5,41.5C 206.666,35.4908 206.499,29.4908 206,23.5C 204.971,20.1247 202.804,18.9581 199.5,20C 197.833,21 196.167,22 194.5,23C 192.629,26.3084 191.296,29.1418 190.5,31.5C 190.5,21.8333 190.5,12.1667 190.5,2.5C 197.202,0.83775 203.535,1.50442 209.5,4.5 Z"/></g>
<g><path style="opacity:0.87" fill="#903611" d="M 139.5,2.5 C 140.5,2.5 141.5,2.5 142.5,2.5C 142.5,4.83333 142.5,7.16667 142.5,9.5C 141.504,9.58577 140.671,9.25244 140,8.5C 139.505,6.5273 139.338,4.5273 139.5,2.5 Z"/></g>
<g><path style="opacity:0.796" fill="#8e3411" d="M 142.5,2.5 C 144.167,2.5 145.833,2.5 147.5,2.5C 147.983,6.57694 146.316,8.91027 142.5,9.5C 142.5,7.16667 142.5,4.83333 142.5,2.5 Z"/></g>
<g><path style="opacity:0.874" fill="#7e2111" d="M 190.5,2.5 C 190.5,12.1667 190.5,21.8333 190.5,31.5C 188.506,30.6503 186.506,30.1503 184.5,30C 185.747,31.4579 185.747,32.9579 184.5,34.5C 186.078,35.2978 187.744,35.7978 189.5,36C 190.711,36.8928 190.711,37.7261 189.5,38.5C 185.958,36.1232 182.624,36.1232 179.5,38.5C 178.5,38.5 177.5,38.5 176.5,38.5C 176.5,37.5 176.5,36.5 176.5,35.5C 178.857,35.6633 181.19,35.4966 183.5,35C 179.878,35.3794 177.711,33.8794 177,30.5C 176.351,23.7071 177.018,17.0404 179,10.5C 181.716,6.22542 185.549,3.55876 190.5,2.5 Z"/></g>
<g><path style="opacity:0.761" fill="#9a4211" d="M 114.5,3.5 C 117.135,4.81094 119.469,6.47761 121.5,8.5C 120.876,10.8337 120.043,13.1671 119,15.5C 117.988,12.7982 116.488,10.4649 114.5,8.5C 114.5,6.83333 114.5,5.16667 114.5,3.5 Z"/></g>
<g><path style="opacity:0.81" fill="#8a2f11" d="M 156.5,4.5 C 156.5,8.83333 156.5,13.1667 156.5,17.5C 155.034,16.653 154.2,15.3197 154,13.5C 153.904,16.4512 153.071,19.1178 151.5,21.5C 150.295,20.4231 149.628,19.0898 149.5,17.5C 149.5,15.1667 149.5,12.8333 149.5,10.5C 150.219,8.23625 150.552,5.90291 150.5,3.5C 152.5,3.83333 154.5,4.16667 156.5,4.5 Z"/></g>
<g><path style="opacity:0.89" fill="#872c11" d="M 156.5,4.5 C 158.5,5.5 160.5,6.5 162.5,7.5C 162.5,18.5 162.5,29.5 162.5,40.5C 160.451,41.6414 158.451,41.6414 156.5,40.5C 156.5,36.8333 156.5,33.1667 156.5,29.5C 161.741,25.6329 161.741,21.6329 156.5,17.5C 156.5,13.1667 156.5,8.83333 156.5,4.5 Z"/></g>
<g><path style="opacity:0.977" fill="#761810" d="M 209.5,4.5 C 210.492,4.32842 211.158,4.66175 211.5,5.5C 211.5,17.5 211.5,29.5 211.5,41.5C 210.833,41.5 210.167,41.5 209.5,41.5C 209.5,29.1667 209.5,16.8333 209.5,4.5 Z"/></g>
<g><path style="opacity:0.874" fill="#751611" d="M 211.5,5.5 C 215.751,8.32154 218.251,12.3215 219,17.5C 220.471,28.4527 221.304,39.4527 221.5,50.5C 219.265,50.2053 217.265,50.5386 215.5,51.5C 214.167,51.5 212.833,51.5 211.5,51.5C 211.5,50.1667 211.5,48.8333 211.5,47.5C 212.458,47.9528 213.292,48.6195 214,49.5C 215.734,48.7511 217.567,48.2511 219.5,48C 217.5,47.6667 215.5,47.3333 213.5,47C 210.584,44.9288 210.918,43.5954 214.5,43C 213.263,42.7679 212.263,42.2679 211.5,41.5C 211.5,29.5 211.5,17.5 211.5,5.5 Z"/></g>
<g><path style="opacity:0.674" fill="#913711" d="M 136.5,16.5 C 136.5,13.8333 136.5,11.1667 136.5,8.5C 136.783,7.71087 137.283,7.0442 138,6.5C 138.346,8.84774 139.513,10.6811 141.5,12C 139.963,13.7073 138.296,15.2073 136.5,16.5 Z"/></g>
<g><path style="opacity:0.951" fill="#852911" d="M 162.5,7.5 C 166.188,9.18836 168.855,11.855 170.5,15.5C 170.5,22.1667 170.5,28.8333 170.5,35.5C 168.206,37.653 165.54,39.3197 162.5,40.5C 162.5,29.5 162.5,18.5 162.5,7.5 Z"/></g>
<g><path style="opacity:0.915" fill="#af5c11" d="M 77.5,8.5 C 77.5,12.5 77.5,16.5 77.5,20.5C 75.8333,20.5 74.1667,20.5 72.5,20.5C 72.5,16.8333 72.5,13.1667 72.5,9.5C 74.0418,8.69929 75.7085,8.36596 77.5,8.5 Z"/></g>
<g><path style="opacity:0.937" fill="#ad5811" d="M 77.5,8.5 C 79.5,8.5 81.5,8.5 83.5,8.5C 83.6653,12.1817 83.4986,15.8484 83,19.5C 81.3005,20.4061 79.4672,20.7394 77.5,20.5C 77.5,16.5 77.5,12.5 77.5,8.5 Z"/></g>
<g><path style="opacity:0.775" fill="#994011" d="M 121.5,8.5 C 123.833,8.83333 125.167,10.1667 125.5,12.5C 125.5,15.5 125.5,18.5 125.5,21.5C 123.205,25.4616 120.205,28.7949 116.5,31.5C 115.5,31 114.5,30.5 113.5,30C 120.009,24.3102 122.676,17.1435 121.5,8.5 Z"/></g>
<g><path style="opacity:0.575" fill="#923911" d="M 136.5,8.5 C 136.5,11.1667 136.5,13.8333 136.5,16.5C 135.613,18.7352 134.613,19.2352 133.5,18C 134.768,14.7939 135.768,11.6272 136.5,8.5 Z"/></g>
<g><path style="opacity:0.8" fill="#b26011" d="M 72.5,9.5 C 72.5,13.1667 72.5,16.8333 72.5,20.5C 69.2107,19.6261 65.8774,18.9595 62.5,18.5C 62.5,17.1667 62.5,15.8333 62.5,14.5C 66.5,14.1667 66.5,13.8333 62.5,13.5C 62.5,12.5 62.5,11.5 62.5,10.5C 65.8067,9.9492 69.1401,9.61587 72.5,9.5 Z"/></g>
<g><path style="opacity:0.473" fill="#b66511" d="M 62.5,10.5 C 62.5,11.5 62.5,12.5 62.5,13.5C 55.9019,12.4343 55.9019,11.4343 62.5,10.5 Z"/></g>
<g><path style="opacity:0.561" fill="#8d3211" d="M 149.5,10.5 C 149.5,12.8333 149.5,15.1667 149.5,17.5C 146.721,16.3832 146.388,15.2166 148.5,14C 147.2,12.4212 147.534,11.2545 149.5,10.5 Z"/></g>
<g><path style="opacity:0.675" fill="#9b4311" d="M 114.5,11.5 C 116.567,13.3177 117.9,15.651 118.5,18.5C 116.058,22.26 114.725,21.5933 114.5,16.5C 114.5,14.8333 114.5,13.1667 114.5,11.5 Z"/></g>
<g><path style="opacity:0.507" fill="#a14b10" d="M 102.5,12.5 C 104.985,13.2601 104.985,14.2601 102.5,15.5C 102.5,14.5 102.5,13.5 102.5,12.5 Z"/></g>
<g><path style="opacity:0.57" fill="#963e10" d="M 125.5,12.5 C 127.958,15.9394 128.125,19.606 126,23.5C 125.536,22.9056 125.369,22.2389 125.5,21.5C 125.5,18.5 125.5,15.5 125.5,12.5 Z"/></g>
<g><path style="opacity:0.74" fill="#b76611" d="M 62.5,14.5 C 62.5,15.8333 62.5,17.1667 62.5,18.5C 59.1933,17.9492 55.8599,17.6159 52.5,17.5C 52.5,16.1667 52.5,14.8333 52.5,13.5C 55.8067,14.0508 59.1401,14.3841 62.5,14.5 Z"/></g>
<g><path style="opacity:0.573" fill="#8e3411" d="M 145.5,19.5 C 143.852,18.0735 141.852,17.2401 139.5,17C 142.814,13.4746 145.48,13.9746 147.5,18.5C 147.043,19.2975 146.376,19.6309 145.5,19.5 Z"/></g>
<g><path style="opacity:0.743" fill="#ca821a" d="M 14.5,15.5 C 14.5,16.5 14.5,17.5 14.5,18.5C 11.8333,19.5 9.16667,20.5 6.5,21.5C 7.12685,16.8811 9.79351,14.8811 14.5,15.5 Z"/></g>
<g><path style="opacity:0.749" fill="#c87d16" d="M 14.5,15.5 C 21.1469,17.3188 23.3136,21.6521 21,28.5C 19.6218,30.2134 17.9552,31.5467 16,32.5C 15.4107,29.2847 15.9107,26.2847 17.5,23.5C 17.6773,21.0321 16.6773,19.3654 14.5,18.5C 14.5,17.5 14.5,16.5 14.5,15.5 Z"/></g>
<g><path style="opacity:0.894" fill="#a75211" d="M 92.5,15.5 C 92.5,18.8333 92.5,22.1667 92.5,25.5C 91.1667,28.5 91.1667,31.5 92.5,34.5C 92.5,45.1667 92.5,55.8333 92.5,66.5C 91.2502,66.4226 90.4169,65.756 90,64.5C 89.5006,59.1771 89.334,53.8437 89.5,48.5C 89.5,38.8333 89.5,29.1667 89.5,19.5C 89.7376,17.5956 90.7376,16.2623 92.5,15.5 Z"/></g>
<g><path style="opacity:0.822" fill="#822611" d="M 170.5,15.5 C 174.088,20.1999 175.254,25.5332 174,31.5C 173.34,33.3237 172.173,34.657 170.5,35.5C 170.5,28.8333 170.5,22.1667 170.5,15.5 Z"/></g>
<g><path style="opacity:0.067" fill="#9e4710" d="M 110.5,17.5 C 109.833,16.1667 109.833,16.1667 110.5,17.5 Z"/></g>
<g><path style="opacity:0.677" fill="#9f4711" d="M 110.5,17.5 C 111.117,17.6107 111.617,17.944 112,18.5C 113.858,24.5812 112.025,29.0812 106.5,32C 109.207,32.3951 111.873,32.8951 114.5,33.5C 114.5,34.1667 114.5,34.8333 114.5,35.5C 111.14,35.6159 107.807,35.9492 104.5,36.5C 104.5,34.1667 104.5,31.8333 104.5,29.5C 109.11,26.9467 111.11,22.9467 110.5,17.5 Z"/></g>
<g><path style="opacity:0.704" fill="#a95411" d="M 89.5,19.5 C 89.5,29.1667 89.5,38.8333 89.5,48.5C 88.5053,40.6263 87.5053,32.6263 86.5,24.5C 86.9572,22.4024 87.9572,20.7358 89.5,19.5 Z"/></g>
<g><path style="opacity:0.779" fill="#903611" d="M 142.5,19.5 C 142.5,20.8333 142.5,22.1667 142.5,23.5C 142.062,23.4346 141.728,23.6012 141.5,24C 143.037,25.1096 143.703,26.6096 143.5,28.5C 142.833,28.5 142.5,28.8333 142.5,29.5C 135.833,29.8333 135.833,30.1667 142.5,30.5C 142.5,31.1667 142.5,31.8333 142.5,32.5C 140.265,32.7947 138.265,32.4614 136.5,31.5C 136.5,30.8333 136.5,30.1667 136.5,29.5C 136.5,29.1667 136.5,28.8333 136.5,28.5C 136.5,26.5 136.5,24.5 136.5,22.5C 138.25,21.1302 140.25,20.1302 142.5,19.5 Z"/></g>
<g><path style="opacity:0.784" fill="#8d3311" d="M 142.5,19.5 C 143.5,19.5 144.5,19.5 145.5,19.5C 147.555,20.5588 148.889,22.2254 149.5,24.5C 149.5,30.1667 149.5,35.8333 149.5,41.5C 147.054,40.7965 144.72,40.4632 142.5,40.5C 142.5,38.5 142.5,36.5 142.5,34.5C 146.147,34.1867 148.147,32.1867 148.5,28.5C 147.665,25.4182 145.665,23.7515 142.5,23.5C 142.5,22.1667 142.5,20.8333 142.5,19.5 Z"/></g>
<g><path style="opacity:0.658" fill="#b76611" d="M 62.5,23.5 C 62.5,24.5 62.5,25.5 62.5,26.5C 59.1401,26.3841 55.8067,26.0508 52.5,25.5C 52.5,23.8333 52.5,22.1667 52.5,20.5C 55.7181,20.6509 56.0515,21.4842 53.5,23C 56.3945,24.5666 59.3945,24.7333 62.5,23.5 Z"/></g>
<g><path style="opacity:0.762" fill="#b36111" d="M 62.5,30.5 C 62.5,29.5 62.5,28.5 62.5,27.5C 62.5,27.1667 62.5,26.8333 62.5,26.5C 62.5,25.5 62.5,24.5 62.5,23.5C 70.2544,22.1047 73.0877,25.4381 71,33.5C 67.1483,35.1617 64.3149,34.1617 62.5,30.5 Z"/></g>
<g><path style="opacity:0.663" fill="#923911" d="M 136.5,22.5 C 136.5,24.5 136.5,26.5 136.5,28.5C 135.167,28.8333 135.167,29.1667 136.5,29.5C 136.5,30.1667 136.5,30.8333 136.5,31.5C 134.446,28.9924 133.446,25.9924 133.5,22.5C 134.5,22.5 135.5,22.5 136.5,22.5 Z"/></g>
<g><path style="opacity:0.838" fill="#a34d11" d="M 102.5,23.5 C 102.5,27.8333 102.5,32.1667 102.5,36.5C 98.0715,35.7347 95.7382,33.068 95.5,28.5C 96.4436,24.89 98.7769,23.2233 102.5,23.5 Z"/></g>
<g><path style="opacity:0.642" fill="#a14b10" d="M 102.5,23.5 C 103.458,25.3024 104.125,27.3024 104.5,29.5C 104.5,31.8333 104.5,34.1667 104.5,36.5C 103.833,36.5 103.167,36.5 102.5,36.5C 102.5,32.1667 102.5,27.8333 102.5,23.5 Z"/></g>
<g><path style="opacity:0.865" fill="#8a2f11" d="M 149.5,24.5 C 151.068,26.8109 151.902,29.4776 152,32.5C 152.589,30.1367 154.089,29.1367 156.5,29.5C 156.5,33.1667 156.5,36.8333 156.5,40.5C 154.283,41.3686 151.95,41.702 149.5,41.5C 149.5,35.8333 149.5,30.1667 149.5,24.5 Z"/></g>
<g><path style="opacity:0.583" fill="#8e3411" d="M 142.5,32.5 C 142.5,31.8333 142.5,31.1667 142.5,30.5C 142.5,30.1667 142.5,29.8333 142.5,29.5C 143.167,29.5 143.5,29.1667 143.5,28.5C 144.222,28.0825 144.722,27.4158 145,26.5C 145.667,28.1667 145.667,29.8333 145,31.5C 144.329,32.2524 143.496,32.5858 142.5,32.5 Z"/></g>
<g><path style="opacity:0.528" fill="#b96811" d="M 52.5,27.5 C 54.1033,27.3118 55.4366,27.8118 56.5,29C 53.1465,34.0988 51.8131,33.5988 52.5,27.5 Z"/></g>
<g><path style="opacity:0.683" fill="#b66511" d="M 62.5,27.5 C 62.5,28.5 62.5,29.5 62.5,30.5C 59.8458,33.7904 59.8458,37.1238 62.5,40.5C 62.5,41.5 62.5,42.5 62.5,43.5C 58.834,42.1825 57.1674,39.5158 57.5,35.5C 57.1674,31.4842 58.834,28.8175 62.5,27.5 Z"/></g>
<g><path style="opacity:0.661" fill="#ad5a10" d="M 77.5,39.5 C 77.5,37.5 77.5,35.5 77.5,33.5C 77.4346,33.0618 77.6012,32.7284 78,32.5C 79.954,35.0064 79.7874,37.3397 77.5,39.5 Z"/></g>
<g><path style="opacity:0.629" fill="#c87d17" d="M 20.5,32.5 C 20.5,33.8333 20.5,35.1667 20.5,36.5C 19.3588,37.339 18.0255,38.0057 16.5,38.5C 16.1667,37.8333 15.8333,37.1667 15.5,36.5C 16.5703,34.4597 18.2369,33.1264 20.5,32.5 Z"/></g>
<g><path style="opacity:0.798" fill="#af5c11" d="M 77.5,33.5 C 77.5,35.5 77.5,37.5 77.5,39.5C 75.998,41.175 74.6647,43.0083 73.5,45C 74.4491,45.6172 75.2825,45.4506 76,44.5C 76.49,45.7932 76.6567,47.1266 76.5,48.5C 75.1667,48.5 73.8333,48.5 72.5,48.5C 72.5,46.8333 72.5,45.1667 72.5,43.5C 72.5,42.8333 72.5,42.1667 72.5,41.5C 72.5,39.8333 72.5,38.1667 72.5,36.5C 73.4006,34.2729 75.0672,33.2729 77.5,33.5 Z"/></g>
<g><path style="opacity:0.627" fill="#9a4211" d="M 114.5,33.5 C 119.136,34.0842 121.469,36.7508 121.5,41.5C 119.407,40.9553 117.407,40.122 115.5,39C 115.347,37.7913 115.014,36.6246 114.5,35.5C 114.5,34.8333 114.5,34.1667 114.5,33.5 Z"/></g>
<g><path style="opacity:0.924" fill="#a44e11" d="M 92.5,34.5 C 95.1301,37.817 98.4635,40.1503 102.5,41.5C 102.5,42.8333 102.5,44.1667 102.5,45.5C 101.167,45.8333 101.167,46.1667 102.5,46.5C 102.5,52.5 102.5,58.5 102.5,64.5C 99.3162,65.3232 95.9828,65.9899 92.5,66.5C 92.5,55.8333 92.5,45.1667 92.5,34.5 Z"/></g>
<g><path style="opacity:0.7" fill="#903611" d="M 142.5,34.5 C 142.5,36.5 142.5,38.5 142.5,40.5C 139.956,39.2921 138.622,37.2921 138.5,34.5C 139.833,34.5 141.167,34.5 142.5,34.5 Z"/></g>
<g><path style="opacity:0.624" fill="#b26011" d="M 72.5,36.5 C 72.5,38.1667 72.5,39.8333 72.5,41.5C 68.2795,41.4786 64.9461,39.812 62.5,36.5C 65.6395,37.4055 68.9728,37.4055 72.5,36.5 Z"/></g>
<g><path style="opacity:0.864" fill="#b76611" d="M 62.5,46.5 C 62.5,53.1667 62.5,59.8333 62.5,66.5C 59.1667,66.5 55.8333,66.5 52.5,66.5C 52.3337,59.1591 52.5003,51.8258 53,44.5C 55.0328,45.0164 55.0328,44.3497 53,42.5C 52.1799,40.272 52.5132,38.272 54,36.5C 55.2586,41.2524 58.0919,44.5857 62.5,46.5 Z"/></g>
<g><path style="opacity:0.677" fill="#913711" d="M 142.5,43.5 C 142.5,44.1667 142.5,44.8333 142.5,45.5C 137.535,43.7647 134.535,40.2647 133.5,35C 136.811,37.1329 139.811,39.9662 142.5,43.5 Z"/></g>
<g><path style="opacity:0.7" fill="#7e2111" d="M 179.5,38.5 C 183.16,38.1588 186.493,38.8255 189.5,40.5C 189.5,41.5 189.5,42.5 189.5,43.5C 188.624,43.3691 187.957,43.7025 187.5,44.5C 187.97,45.463 188.637,45.463 189.5,44.5C 189.5,45.5 189.5,46.5 189.5,47.5C 189.5,48.1667 189.833,48.5 190.5,48.5C 190.5,49.5 190.5,50.5 190.5,51.5C 187.385,51.6061 184.719,50.6061 182.5,48.5C 182.244,46.2075 182.577,44.0408 183.5,42C 180.196,40.9581 178.029,42.1247 177,45.5C 176.505,43.5273 176.338,41.5273 176.5,39.5C 177.791,39.7373 178.791,39.404 179.5,38.5 Z"/></g>
<g><path style="opacity:0.533" fill="#c77d16" d="M 20.5,39.5 C 20.5,41.1667 20.5,42.8333 20.5,44.5C 20.44,45.0431 20.1067,45.3764 19.5,45.5C 18.376,44.086 17.376,42.586 16.5,41C 17.5634,39.8118 18.8967,39.3118 20.5,39.5 Z"/></g>
<g><path style="opacity:0.85" fill="#b36011" d="M 62.5,40.5 C 64.8008,41.0604 67.1341,41.5604 69.5,42C 70.2266,43.3988 70.7266,44.8988 71,46.5C 71.2321,45.2625 71.7321,44.2625 72.5,43.5C 72.5,45.1667 72.5,46.8333 72.5,48.5C 71.9918,50.8422 70.9918,53.0088 69.5,55C 71.4257,55.4224 72.4257,56.5891 72.5,58.5C 72.5,61.1667 72.5,63.8333 72.5,66.5C 69.1667,66.5 65.8333,66.5 62.5,66.5C 62.5,59.8333 62.5,53.1667 62.5,46.5C 64.1172,47.038 65.7839,47.3713 67.5,47.5C 67.5,46.5 67.5,45.5 67.5,44.5C 65.7085,44.634 64.0418,44.3007 62.5,43.5C 62.5,42.5 62.5,41.5 62.5,40.5 Z"/></g>
<g><path style="opacity:0.543" fill="#7c1f11" d="M 189.5,40.5 C 190.283,42.3432 190.95,44.3432 191.5,46.5C 191.043,47.2975 190.376,47.6309 189.5,47.5C 189.5,46.5 189.5,45.5 189.5,44.5C 189.5,44.1667 189.5,43.8333 189.5,43.5C 189.5,42.5 189.5,41.5 189.5,40.5 Z"/></g>
<g><path style="opacity:0.833" fill="#a14b10" d="M 102.5,41.5 C 103.167,41.5 103.833,41.5 104.5,41.5C 104.5,42.8333 104.5,44.1667 104.5,45.5C 103.833,45.5 103.167,45.5 102.5,45.5C 102.5,44.1667 102.5,42.8333 102.5,41.5 Z"/></g>
<g><path style="opacity:0.82" fill="#9e4711" d="M 104.5,41.5 C 107.86,41.6159 111.193,41.9492 114.5,42.5C 114.5,43.8333 114.5,45.1667 114.5,46.5C 111.193,45.9492 107.86,45.6159 104.5,45.5C 104.5,44.1667 104.5,42.8333 104.5,41.5 Z"/></g>
<g><path style="opacity:0.067" fill="#984110" d="M 121.5,41.5 C 122.833,42.1667 122.833,42.1667 121.5,41.5 Z"/></g>
<g><path style="opacity:0.731" fill="#994111" d="M 114.5,42.5 C 119.825,42.9866 123.492,45.6533 125.5,50.5C 125.281,51.938 124.781,53.2713 124,54.5C 121.889,50.5536 118.722,47.887 114.5,46.5C 114.5,45.1667 114.5,43.8333 114.5,42.5 Z"/></g>
<g><path style="opacity:0.95" fill="#8d3311" d="M 142.5,43.5 C 144.764,44.2186 147.097,44.552 149.5,44.5C 149.5,53.8333 149.5,63.1667 149.5,72.5C 147.139,72.3259 144.806,71.9926 142.5,71.5C 142.5,63.5 142.5,55.5 142.5,47.5C 149.167,47.1667 149.167,46.8333 142.5,46.5C 142.5,46.1667 142.5,45.8333 142.5,45.5C 142.5,44.8333 142.5,44.1667 142.5,43.5 Z"/></g>
<g><path style="opacity:0.911" fill="#8a2f11" d="M 149.5,72.5 C 149.5,63.1667 149.5,53.8333 149.5,44.5C 151.117,43.962 152.784,43.6287 154.5,43.5C 155.137,53.1746 155.803,62.8413 156.5,72.5C 154.167,72.5 151.833,72.5 149.5,72.5 Z"/></g>
<g><path style="opacity:0.946" fill="#903611" d="M 142.5,46.5 C 142.5,46.8333 142.5,47.1667 142.5,47.5C 142.5,55.5 142.5,63.5 142.5,71.5C 140.379,71.6747 138.379,71.3414 136.5,70.5C 136.5,63.8333 136.5,57.1667 136.5,50.5C 137.163,48.9581 137.83,47.2914 138.5,45.5C 139.736,46.2458 141.07,46.5792 142.5,46.5 Z"/></g>
<g><path style="opacity:0.617" fill="#771811" d="M 211.5,47.5 C 211.5,48.8333 211.5,50.1667 211.5,51.5C 211.5,51.8333 211.5,52.1667 211.5,52.5C 210.833,52.5 210.167,52.5 209.5,52.5C 209.5,51.8333 209.5,51.1667 209.5,50.5C 210.833,50.1667 210.833,49.8333 209.5,49.5C 209.5,48.8333 209.167,48.5 208.5,48.5C 208.672,47.5084 208.338,46.8417 207.5,46.5C 206.588,45.2618 206.421,43.9285 207,42.5C 208.707,44.0375 210.207,45.7041 211.5,47.5 Z"/></g>
<g><path style="opacity:0.872" fill="#a14b10" d="M 102.5,46.5 C 103.167,46.5 103.833,46.5 104.5,46.5C 104.5,49.1667 104.5,51.8333 104.5,54.5C 104.665,57.5184 104.498,60.5184 104,63.5C 103.617,64.056 103.117,64.3893 102.5,64.5C 102.5,58.5 102.5,52.5 102.5,46.5 Z"/></g>
<g><path style="opacity:0.715" fill="#9e4711" d="M 104.5,46.5 C 108.133,47.2623 111.466,48.5957 114.5,50.5C 114.5,51.8333 114.5,53.1667 114.5,54.5C 114.167,54.5 113.833,54.5 113.5,54.5C 113.5,55.1667 113.833,55.5 114.5,55.5C 114.5,55.8333 114.5,56.1667 114.5,56.5C 114.5,60.5 114.5,64.5 114.5,68.5C 113.022,68.762 111.689,68.4287 110.5,67.5C 109.001,62.839 107.501,58.1724 106,53.5C 105.617,54.056 105.117,54.3893 104.5,54.5C 104.5,51.8333 104.5,49.1667 104.5,46.5 Z M 113.5,54.5 C 110.244,53.2311 108.744,54.5645 109,58.5C 108.186,56.0982 108.353,53.7649 109.5,51.5C 111.261,52.0351 112.594,53.0351 113.5,54.5 Z"/></g>
<g><path style="opacity:0.697" fill="#802311" d="M 182.5,48.5 C 182.349,52.314 180.349,53.9807 176.5,53.5C 176.5,51.1667 176.5,48.8333 176.5,46.5C 178.886,46.2587 180.886,46.9254 182.5,48.5 Z"/></g>
<g><path style="opacity:0.827" fill="#791b11" d="M 207.5,46.5 C 207.328,47.4916 207.662,48.1583 208.5,48.5C 209.167,48.5 209.5,48.8333 209.5,49.5C 209.5,49.8333 209.5,50.1667 209.5,50.5C 209.5,51.1667 209.5,51.8333 209.5,52.5C 208.167,52.8333 208.167,53.1667 209.5,53.5C 209.5,55.1667 209.5,56.8333 209.5,58.5C 209.5,58.8333 209.5,59.1667 209.5,59.5C 209.5,62.5 209.5,65.5 209.5,68.5C 203.284,71.4324 196.951,72.099 190.5,70.5C 190.5,66.8333 190.5,63.1667 190.5,59.5C 190.5,58.8333 190.5,58.1667 190.5,57.5C 190.5,56.8333 190.5,56.1667 190.5,55.5C 191.794,56.2899 192.961,57.2899 194,58.5C 194,57.1667 194,55.8333 194,54.5C 194.718,55.4506 195.551,55.6172 196.5,55C 195.084,52.7355 193.084,51.5688 190.5,51.5C 190.5,50.5 190.5,49.5 190.5,48.5C 194.64,51.5661 199.307,53.5661 204.5,54.5C 205.5,54.3333 206.5,54.1667 207.5,54C 201.039,53.4401 201.039,52.4401 207.5,51C 205.019,49.1962 205.019,47.6962 207.5,46.5 Z"/></g>
<g><path style="opacity:0.717" fill="#c87d17" d="M 20.5,47.5 C 20.5,54.5 20.5,61.5 20.5,68.5C 18.9139,69.4132 17.4139,69.4132 16,68.5C 15.3333,66.1667 15.3333,63.8333 16,61.5C 19.4101,60.1259 19.2434,59.4592 15.5,59.5C 15.5,55.8333 15.5,52.1667 15.5,48.5C 16.5,48.5 17.5,48.5 18.5,48.5C 18.3433,49.8734 18.51,51.2068 19,52.5C 19.1981,50.6183 19.6981,48.9516 20.5,47.5 Z"/></g>
<g><path style="opacity:0.618" fill="#923911" d="M 136.5,50.5 C 136.5,57.1667 136.5,63.8333 136.5,70.5C 134.945,66.7968 134.278,62.7968 134.5,58.5C 134.667,55.5 134.833,52.5 135,49.5C 135.383,50.056 135.883,50.3893 136.5,50.5 Z"/></g>
<g><path style="opacity:0.673" fill="#9a4211" d="M 114.5,50.5 C 120.395,54.9636 123.061,60.9636 122.5,68.5C 121.5,68.5 120.5,68.5 119.5,68.5C 119.931,63.793 118.598,59.793 115.5,56.5C 115.5,55.8333 115.167,55.5 114.5,55.5C 114.5,55.1667 114.5,54.8333 114.5,54.5C 114.5,53.1667 114.5,51.8333 114.5,50.5 Z"/></g>
<g><path style="opacity:0.656" fill="#751711" d="M 215.5,51.5 C 217.604,51.2011 219.604,51.5344 221.5,52.5C 220.13,59.862 216.13,65.1953 209.5,68.5C 209.5,65.5 209.5,62.5 209.5,59.5C 213.878,59.2051 214.878,57.5384 212.5,54.5C 211.85,56.1836 210.85,57.5169 209.5,58.5C 209.5,56.8333 209.5,55.1667 209.5,53.5C 210.492,53.6716 211.158,53.3382 211.5,52.5C 213.099,52.7678 214.432,52.4345 215.5,51.5 Z M 215.5,53.5 C 218.001,53.5109 218.168,54.1776 216,55.5C 215.536,54.9056 215.369,54.2389 215.5,53.5 Z"/></g>
<g><path style="opacity:0.743" fill="#963d11" d="M 126.5,54.5 C 129.254,58.6953 130.921,63.3619 131.5,68.5C 129.5,68.5 127.5,68.5 125.5,68.5C 126.237,63.6803 126.571,59.0136 126.5,54.5 Z"/></g>
<g><path style="opacity:0.881" fill="#7e2111" d="M 190.5,59.5 C 190.5,63.1667 190.5,66.8333 190.5,70.5C 182.229,69.5628 177.563,64.8961 176.5,56.5C 179.305,57.1199 181.972,56.4533 184.5,54.5C 186.519,56.1897 188.519,57.8564 190.5,59.5 Z"/></g>
<g><path style="opacity:0.622" fill="#7d1f11" d="M 190.5,55.5 C 190.5,56.1667 190.5,56.8333 190.5,57.5C 189.152,56.4732 188.652,55.1398 189,53.5C 189.717,54.0442 190.217,54.7109 190.5,55.5 Z"/></g>
<g><path style="opacity:0.758" fill="#9b4311" d="M 114.5,56.5 C 114.833,56.5 115.167,56.5 115.5,56.5C 117.316,60.2841 118.316,64.2841 118.5,68.5C 117.167,68.5 115.833,68.5 114.5,68.5C 114.5,64.5 114.5,60.5 114.5,56.5 Z"/></g>
<g><path style="opacity:0.936" fill="#af5c11" d="M 77.5,57.5 C 77.5,60.5 77.5,63.5 77.5,66.5C 75.8333,66.5 74.1667,66.5 72.5,66.5C 72.5,63.8333 72.5,61.1667 72.5,58.5C 74.0418,57.6993 75.7085,57.366 77.5,57.5 Z"/></g>
<g><path style="opacity:0.807" fill="#ad5a10" d="M 77.5,57.5 C 78.7647,58.5145 79.4313,60.0145 79.5,62C 79.4313,63.9855 78.7647,65.4855 77.5,66.5C 77.5,63.5 77.5,60.5 77.5,57.5 Z"/></g>
<g><path style="opacity:0.91" fill="#fefffe" d="M 16.5,78.5 C 16.4533,81.5682 15.9533,84.5682 15,87.5C 13.3523,88.717 11.519,89.5503 9.5,90C 7.26232,93.015 4.92899,95.8484 2.5,98.5C 1.50274,91.1968 1.16941,83.8635 1.5,76.5C 6.80697,75.9735 11.807,76.6402 16.5,78.5 Z"/></g>
<g><path style="opacity:0.866" fill="#fefffe" d="M 16.5,78.5 C 20.7825,77.1734 25.4492,76.5067 30.5,76.5C 37.1839,76.6434 43.8506,76.9767 50.5,77.5C 50.6791,82.1513 50.6791,86.6513 50.5,91C 43.5298,92.4003 36.5298,93.567 29.5,94.5C 29.6666,110.503 29.4999,126.503 29,142.5C 25.2501,143.982 21.4168,144.816 17.5,145C 16.3977,142.599 16.231,140.099 17,137.5C 20.4101,136.126 20.2434,135.459 16.5,135.5C 16.5,131.833 16.5,128.167 16.5,124.5C 17.5,124.5 18.5,124.5 19.5,124.5C 19.8659,129.468 20.3659,129.134 21,123.5C 25.7669,119.631 25.6003,118.964 20.5,121.5C 19.376,120.086 18.376,118.586 17.5,117C 20.3553,116.051 22.6886,114.384 24.5,112C 22.2842,112.687 19.9509,113.52 17.5,114.5C 17.1667,113.833 16.8333,113.167 16.5,112.5C 19.012,110.301 21.512,107.968 24,105.5C 24.6058,101.706 26.1058,98.3728 28.5,95.5C 27.2438,96.0302 25.7438,96.0302 24,95.5C 23.3399,92.4665 23.8399,89.6331 25.5,87C 25.1667,86.8333 24.8333,86.6667 24.5,86.5C 23.3333,88.1667 22.1667,89.8333 21,91.5C 20.3109,90.6433 19.4776,89.9767 18.5,89.5C 18.3873,85.832 17.7207,82.1654 16.5,78.5 Z"/></g>
<g><path style="opacity:0.91" fill="#fefffe" d="M 96.5,78.5 C 96.4533,81.5682 95.9533,84.5682 95,87.5C 93.3523,88.717 91.519,89.5503 89.5,90C 87.2623,93.015 84.929,95.8484 82.5,98.5C 81.5027,91.1968 81.1694,83.8635 81.5,76.5C 86.807,75.9735 91.807,76.6402 96.5,78.5 Z"/></g>
<g><path style="opacity:0.866" fill="#fefffe" d="M 96.5,78.5 C 100.783,77.1734 105.449,76.5067 110.5,76.5C 117.184,76.6434 123.851,76.9767 130.5,77.5C 130.679,82.1513 130.679,86.6513 130.5,91C 123.53,92.4003 116.53,93.567 109.5,94.5C 109.667,110.503 109.5,126.503 109,142.5C 105.25,143.982 101.417,144.816 97.5,145C 96.3977,142.599 96.231,140.099 97,137.5C 100.41,136.126 100.243,135.459 96.5,135.5C 96.5,131.833 96.5,128.167 96.5,124.5C 97.5,124.5 98.5,124.5 99.5,124.5C 99.8659,129.468 100.366,129.134 101,123.5C 105.767,119.631 105.6,118.964 100.5,121.5C 99.376,120.086 98.376,118.586 97.5,117C 100.355,116.051 102.689,114.384 104.5,112C 102.284,112.687 99.9509,113.52 97.5,114.5C 97.1667,113.833 96.8333,113.167 96.5,112.5C 99.012,110.301 101.512,107.968 104,105.5C 104.606,101.706 106.106,98.3728 108.5,95.5C 107.244,96.0302 105.744,96.0302 104,95.5C 103.34,92.4665 103.84,89.6331 105.5,87C 105.167,86.8333 104.833,86.6667 104.5,86.5C 103.333,88.1667 102.167,89.8333 101,91.5C 100.311,90.6433 99.4776,89.9767 98.5,89.5C 98.3873,85.832 97.7207,82.1654 96.5,78.5 Z"/></g>
<g><path style="opacity:0.91" fill="#fefffe" d="M 147.5,78.5 C 147.453,81.5682 146.953,84.5682 146,87.5C 144.352,88.717 142.519,89.5503 140.5,90C 138.262,93.015 135.929,95.8484 133.5,98.5C 132.503,91.1968 132.169,83.8635 132.5,76.5C 137.807,75.9735 142.807,76.6402 147.5,78.5 Z"/></g>
<g><path style="opacity:0.866" fill="#fefffe" d="M 147.5,78.5 C 151.783,77.1734 156.449,76.5067 161.5,76.5C 168.184,76.6434 174.851,76.9767 181.5,77.5C 181.679,82.1513 181.679,86.6513 181.5,91C 174.53,92.4003 167.53,93.567 160.5,94.5C 160.667,110.503 160.5,126.503 160,142.5C 156.25,143.982 152.417,144.816 148.5,145C 147.398,142.599 147.231,140.099 148,137.5C 151.41,136.126 151.243,135.459 147.5,135.5C 147.5,131.833 147.5,128.167 147.5,124.5C 148.5,124.5 149.5,124.5 150.5,124.5C 150.866,129.468 151.366,129.134 152,123.5C 156.767,119.631 156.6,118.964 151.5,121.5C 150.376,120.086 149.376,118.586 148.5,117C 151.355,116.051 153.689,114.384 155.5,112C 153.284,112.687 150.951,113.52 148.5,114.5C 148.167,113.833 147.833,113.167 147.5,112.5C 150.012,110.301 152.512,107.968 155,105.5C 155.606,101.706 157.106,98.3728 159.5,95.5C 158.244,96.0302 156.744,96.0302 155,95.5C 154.34,92.4665 154.84,89.6331 156.5,87C 156.167,86.8333 155.833,86.6667 155.5,86.5C 154.333,88.1667 153.167,89.8333 152,91.5C 151.311,90.6433 150.478,89.9767 149.5,89.5C 149.387,85.832 148.721,82.1654 147.5,78.5 Z"/></g>
<g><path style="opacity:0.856" fill="#fefffe" d="M 190.5,124.5 C 190.244,122.208 190.577,120.041 191.5,118C 188.196,116.958 186.029,118.125 185,121.5C 184.505,119.527 184.338,117.527 184.5,115.5C 185.791,115.737 186.791,115.404 187.5,114.5C 186.5,114.5 185.5,114.5 184.5,114.5C 184.5,113.5 184.5,112.5 184.5,111.5C 186.857,111.663 189.19,111.497 191.5,111C 189.567,110.749 187.734,110.249 186,109.5C 180.65,84.5173 190.484,74.3506 215.5,79C 221.931,81.7651 225.764,86.5984 227,93.5C 228.471,104.453 229.304,115.453 229.5,126.5C 221.606,126.527 221.606,127.193 229.5,128.5C 225.821,140.85 217.487,147.184 204.5,147.5C 193.372,148.284 186.706,143.284 184.5,132.5C 185.776,131.355 187.109,131.355 188.5,132.5C 189.833,131.833 191.167,131.167 192.5,130.5C 194.483,131.982 196.316,133.649 198,135.5C 197.667,133.5 197.333,131.5 197,129.5C 198.667,131.167 200.333,132.833 202,134.5C 202,133.167 202,131.833 202,130.5C 202.718,131.451 203.551,131.617 204.5,131C 201.902,128.041 198.568,126.707 194.5,127C 193.016,126.338 191.683,125.504 190.5,124.5 Z M 215.5,122.5 C 213.019,123.696 213.019,125.196 215.5,127C 209.039,128.44 209.039,129.44 215.5,130C 214.5,130.167 213.5,130.333 212.5,130.5C 207.09,129.287 202.09,127.287 197.5,124.5C 198.091,123.849 198.757,123.182 199.5,122.5C 198.811,120.556 198.311,118.556 198,116.5C 194.715,114.863 191.215,114.196 187.5,114.5C 190.624,112.123 193.958,112.123 197.5,114.5C 198.711,113.726 198.711,112.893 197.5,112C 195.744,111.798 194.078,111.298 192.5,110.5C 193.747,108.958 193.747,107.458 192.5,106C 194.846,106.079 197.013,106.912 199,108.5C 199.196,101.417 202.696,97.084 209.5,95.5C 211.766,95.9308 213.266,97.2642 214,99.5C 214.499,105.491 214.666,111.491 214.5,117.5C 217.271,117.421 219.937,117.921 222.5,119C 221.376,119.249 220.376,119.749 219.5,120.5C 219.667,120.833 219.833,121.167 220,121.5C 222.166,123.121 224.666,123.955 227.5,124C 225.567,124.251 223.734,124.751 222,125.5C 219.667,123.167 217.333,120.833 215,118.5C 214.421,119.928 214.588,121.262 215.5,122.5 Z M 195.5,119.5 C 198.001,119.511 198.168,120.178 196,121.5C 195.536,120.906 195.369,120.239 195.5,119.5 Z M 223.5,129.5 C 226.001,129.511 226.168,130.178 224,131.5C 223.536,130.906 223.369,130.239 223.5,129.5 Z M 222.5,133.5 C 216.588,136.53 215.921,135.53 220.5,130.5C 221.425,131.357 222.092,132.357 222.5,133.5 Z"/></g>
<g><path style="opacity:0.856" fill="#fefffe" d="M 237.5,124.5 C 237.244,122.208 237.577,120.041 238.5,118C 235.196,116.958 233.029,118.125 232,121.5C 231.505,119.527 231.338,117.527 231.5,115.5C 232.791,115.737 233.791,115.404 234.5,114.5C 233.5,114.5 232.5,114.5 231.5,114.5C 231.5,113.5 231.5,112.5 231.5,111.5C 233.857,111.663 236.19,111.497 238.5,111C 236.567,110.749 234.734,110.249 233,109.5C 227.65,84.5173 237.484,74.3506 262.5,79C 268.931,81.7651 272.764,86.5984 274,93.5C 275.471,104.453 276.304,115.453 276.5,126.5C 268.606,126.527 268.606,127.193 276.5,128.5C 272.821,140.85 264.487,147.184 251.5,147.5C 240.372,148.284 233.706,143.284 231.5,132.5C 232.776,131.355 234.109,131.355 235.5,132.5C 236.833,131.833 238.167,131.167 239.5,130.5C 241.483,131.982 243.316,133.649 245,135.5C 244.667,133.5 244.333,131.5 244,129.5C 245.667,131.167 247.333,132.833 249,134.5C 249,133.167 249,131.833 249,130.5C 249.718,131.451 250.551,131.617 251.5,131C 248.902,128.041 245.568,126.707 241.5,127C 240.016,126.338 238.683,125.504 237.5,124.5 Z M 262.5,122.5 C 260.019,123.696 260.019,125.196 262.5,127C 256.039,128.44 256.039,129.44 262.5,130C 261.5,130.167 260.5,130.333 259.5,130.5C 254.09,129.287 249.09,127.287 244.5,124.5C 245.091,123.849 245.757,123.182 246.5,122.5C 245.811,120.556 245.311,118.556 245,116.5C 241.715,114.863 238.215,114.196 234.5,114.5C 237.624,112.123 240.958,112.123 244.5,114.5C 245.711,113.726 245.711,112.893 244.5,112C 242.744,111.798 241.078,111.298 239.5,110.5C 240.747,108.958 240.747,107.458 239.5,106C 241.846,106.079 244.013,106.912 246,108.5C 246.196,101.417 249.696,97.084 256.5,95.5C 258.766,95.9308 260.266,97.2642 261,99.5C 261.499,105.491 261.666,111.491 261.5,117.5C 264.271,117.421 266.937,117.921 269.5,119C 268.376,119.249 267.376,119.749 266.5,120.5C 266.667,120.833 266.833,121.167 267,121.5C 269.166,123.121 271.666,123.955 274.5,124C 272.567,124.251 270.734,124.751 269,125.5C 266.667,123.167 264.333,120.833 262,118.5C 261.421,119.928 261.588,121.262 262.5,122.5 Z M 242.5,119.5 C 245.001,119.511 245.168,120.178 243,121.5C 242.536,120.906 242.369,120.239 242.5,119.5 Z M 270.5,129.5 C 273.001,129.511 273.168,130.178 271,131.5C 270.536,130.906 270.369,130.239 270.5,129.5 Z M 269.5,133.5 C 263.588,136.53 262.921,135.53 267.5,130.5C 268.425,131.357 269.092,132.357 269.5,133.5 Z"/></g>
<g><path style="opacity:0.827" fill="#fefffe" d="M 55.5,80.5 C 58.8333,80.5 62.1667,80.5 65.5,80.5C 65.5086,82.3084 65.0086,83.9751 64,85.5C 60.3333,88.5 56.6667,91.5 53,94.5C 53.4957,89.8472 54.329,85.1805 55.5,80.5 Z"/></g>
<g><path style="opacity:0.913" fill="#fefffe" d="M 53.5,119.5 C 53.5,118.833 53.1667,118.5 52.5,118.5C 52.9175,117.778 53.5842,117.278 54.5,117C 54.1667,116.667 53.8333,116.333 53.5,116C 56.4016,113.149 58.4016,109.815 59.5,106C 57.0426,104.488 57.0426,103.154 59.5,102C 55.3921,101.614 53.8921,99.4472 55,95.5C 55.5,93.6667 56.6667,92.5 58.5,92C 60.5213,91.8598 62.3547,91.6932 64,91.5C 65.9039,88.0769 66.7372,84.4102 66.5,80.5C 69.7766,80.2161 72.9433,80.5495 76,81.5C 78.3718,98.9745 80.5385,116.475 82.5,134C 82.4555,135.764 82.1222,137.431 81.5,139C 77.1656,140.51 72.8323,141.01 68.5,140.5C 67.3731,134.231 66.7064,127.898 66.5,121.5C 63.1048,120.944 60.9381,122.277 60,125.5C 59.6667,123.5 59.3333,121.5 59,119.5C 58.7398,121.618 57.7398,123.284 56,124.5C 55.6264,122.509 54.793,120.842 53.5,119.5 Z M 63.5,110.5 C 64.2891,110.783 64.9558,111.283 65.5,112C 64.184,112.528 63.5173,112.028 63.5,110.5 Z"/></g>
<g><path style="opacity:0.739" fill="#fefffe" d="M 10.5,91.5 C 20.1561,90.657 23.9895,94.9903 22,104.5C 20.6218,106.213 18.9552,107.547 17,108.5C 17.8039,104.622 18.1372,100.622 18,96.5C 16.8061,95.5697 15.4728,94.9031 14,94.5C 12.1397,96.2009 9.97301,97.2009 7.5,97.5C 7.61501,95.0532 8.61501,93.0532 10.5,91.5 Z"/></g>
<g><path style="opacity:0.739" fill="#fefffe" d="M 90.5,91.5 C 100.156,90.657 103.989,94.9903 102,104.5C 100.622,106.213 98.9552,107.547 97,108.5C 97.8039,104.622 98.1372,100.622 98,96.5C 96.8061,95.5697 95.4728,94.9031 94,94.5C 92.1397,96.2009 89.973,97.2009 87.5,97.5C 87.615,95.0532 88.615,93.0532 90.5,91.5 Z"/></g>
<g><path style="opacity:0.739" fill="#fefffe" d="M 141.5,91.5 C 151.156,90.657 154.989,94.9903 153,104.5C 151.622,106.213 149.955,107.547 148,108.5C 148.804,104.622 149.137,100.622 149,96.5C 147.806,95.5697 146.473,94.9031 145,94.5C 143.14,96.2009 140.973,97.2009 138.5,97.5C 138.615,95.0532 139.615,93.0532 141.5,91.5 Z"/></g>
<g><path style="opacity:0.738" fill="#fefffe" d="M 52.5,101.5 C 54.3371,104.519 54.8371,107.852 54,111.5C 52.8904,113.037 51.3904,113.703 49.5,113.5C 49.2631,109.114 50.2631,105.114 52.5,101.5 Z"/></g>
<g><path style="opacity:0.687" fill="#fefffe" d="M 52.5,118.5 C 53.1667,118.5 53.5,118.833 53.5,119.5C 54.4296,123.796 55.2629,128.13 56,132.5C 56.7012,130.238 57.8678,129.238 59.5,129.5C 58.5123,132.45 57.679,135.45 57,138.5C 55.272,142.176 52.9386,142.509 50,139.5C 49.3292,140.252 48.4959,140.586 47.5,140.5C 47.5,139.833 47.1667,139.5 46.5,139.5C 46.5,138.833 46.1667,138.5 45.5,138.5C 44.6993,136.958 44.366,135.292 44.5,133.5C 50.4964,134.667 52.9964,132.334 52,126.5C 50.4002,125.134 48.5668,124.134 46.5,123.5C 47.714,121.931 49.3807,121.098 51.5,121C 46.2595,118.276 46.5929,117.443 52.5,118.5 Z"/></g>
<g><path style="opacity:0.697" fill="#fefffe" d="M 190.5,124.5 C 190.349,128.314 188.349,129.981 184.5,129.5C 184.5,127.167 184.5,124.833 184.5,122.5C 186.886,122.259 188.886,122.925 190.5,124.5 Z"/></g>
<g><path style="opacity:0.697" fill="#fefffe" d="M 237.5,124.5 C 237.349,128.314 235.349,129.981 231.5,129.5C 231.5,127.167 231.5,124.833 231.5,122.5C 233.886,122.259 235.886,122.925 237.5,124.5 Z"/></g>
<g><path style="opacity:0.589" fill="#fefffe" d="M 46.5,125.5 C 48.045,126.23 48.8784,127.563 49,129.5C 49.4512,127.071 50.2845,126.904 51.5,129C 50.4464,132.258 48.4464,133.092 45.5,131.5C 46.0253,130.808 46.6919,130.308 47.5,130C 46.6919,129.692 46.0253,129.192 45.5,128.5C 46.1272,127.583 46.4606,126.583 46.5,125.5 Z"/></g>
<g><path style="opacity:0.704" fill="#fefffe" d="M 45.5,138.5 C 46.1667,138.5 46.5,138.833 46.5,139.5C 47.1667,139.5 47.5,139.833 47.5,140.5C 47.6107,141.117 47.944,141.617 48.5,142C 50.8098,142.497 53.1432,142.663 55.5,142.5C 55.3259,144.861 54.9926,147.194 54.5,149.5C 51.8333,149.5 49.1667,149.5 46.5,149.5C 45.469,148.751 44.3024,148.085 43,147.5C 42.8333,146.667 42.6667,145.833 42.5,145C 42.5438,142.199 43.5438,140.032 45.5,138.5 Z"/></g>
</svg>
